<?xml version="1.0" encoding="UTF-8" standalone="no"?>
<!DOCTYPE svg PUBLIC "-//W3C//DTD SVG 1.1//EN" "http://www.w3.org/Graphics/SVG/1.1/DTD/svg11.dtd">
<svg width="100%" height="100%" viewBox="0 0 512 512" version="1.1" xmlns="http://www.w3.org/2000/svg" xmlns:xlink="http://www.w3.org/1999/xlink" xml:space="preserve" xmlns:serif="http://www.serif.com/" style="fill-rule:evenodd;clip-rule:evenodd;stroke-linejoin:round;stroke-miterlimit:2;">
    <g id="Operational-Tooling" serif:id="Operational Tooling">
        <g>
            <g>
                <path d="M464.369,342.655C464.521,342.879 464.718,343.051 464.963,343.191C463.554,343.158 462.027,343.19 460.271,343.356C461.6,342.886 462.978,342.696 464.369,342.655Z" style="fill:rgb(242,173,148);fill-opacity:1;"/>
                <path d="M464.963,343.191C466.182,343.888 468.59,343.783 472.589,345.261C495.798,353.841 502.411,386.323 478.388,402.323C476.943,403.285 343.711,480.141 343.396,480.318C328.114,488.941 318.173,487.966 302.5,487.966C193.553,487.966 193.553,487.98 191.471,487.86C181.527,487.289 173.733,483.621 172.3,482.947C167.832,480.845 167.836,480.875 163.422,478.656C162.768,478.327 162.162,477.881 161.464,477.659C160.104,477.227 160.028,479.251 160.021,479.434C159.833,484.474 161.684,493.06 154.5,495.501C152.957,496.026 152.914,495.966 102.5,495.966C95.985,495.966 96.004,495.846 89.502,496.033C85.286,496.155 80.171,494.197 80.047,487.518C79.936,481.553 80.375,481.376 79.517,480.483C79.024,479.971 78.887,480.035 49.5,480.035C22.864,480.035 22.765,480.165 20.654,479.171C15.152,476.583 16.034,470.588 16.034,466.5C16.034,364.129 16.043,364.13 15.967,361.502C15.826,356.577 18.343,352.157 24.483,352.046C26.426,352.011 78.274,352.061 78.448,352.017C80.081,351.599 79.939,351.206 79.965,349.512C80.008,346.662 78.789,338.741 85.495,336.487C87.013,335.976 87.055,336.034 141.5,336.034C151.294,336.034 155.216,335.41 158.077,338.859C160.312,341.552 159.979,344.308 159.965,354.498C159.965,354.718 159.962,356.762 160.707,357.153C160.907,357.257 161.06,357.316 161.344,357.305C161.316,357.376 164.077,356.66 171.434,354.9C176.319,353.283 186.998,350.912 194.126,349.215C196.127,348.91 199.773,347.624 204.773,346.683L308.465,368.573C309.327,368.829 310.036,369.023 310.588,369.021C310.589,369.021 311.052,369.146 311.835,369.357C317.617,371.289 327.259,374.224 334.975,375.621C335.125,375.661 335.277,375.703 335.432,375.746C337.304,376.265 339.03,376.718 340.634,377.131L344.283,378.116L340.634,377.131C352.78,380.258 357.897,381.076 366.246,390.721C368.168,392.942 369.226,391.414 373.714,388.873C384.628,382.694 427.282,357.874 441.976,349.517C447.394,348.502 453.149,346.829 459.1,343.853C459.485,343.661 459.876,343.496 460.271,343.356C462.027,343.19 463.554,343.158 464.963,343.191ZM75.5,464.034C77.43,464.023 77.438,464.275 78.448,464.017C80.081,463.599 79.939,463.206 79.965,461.512C80.013,458.298 79.87,376.708 80.034,370.505C80.119,367.299 78.699,368.035 75.5,368.035C40.743,368.03 40.756,368.132 34.505,367.966C32.642,367.917 32.181,368.36 32.035,368.5L32.035,459.5C32.035,462.617 31.36,463.918 34.488,463.965C38.337,464.023 67.722,463.855 75.5,464.034ZM311.5,472.034C329.284,472.024 329.22,469.84 364.585,449.646C369.452,446.867 441.016,405.425 452.246,399.058C453.368,398.422 453.339,398.391 466.215,391.017C473.106,387.07 474.636,384.603 475.577,382.54C482.83,366.65 466.209,353.938 452.684,361.828C441.656,368.261 429.189,375.368 428.625,375.717C427.125,376.645 407.71,387.739 405.321,389.188C397.091,394.178 396.872,393.763 388.657,398.773C386.936,399.822 381.647,402.778 379.321,404.188C377.034,405.575 376.961,405.416 374.7,406.833C371.839,408.626 374.02,410.524 372.1,418.401C369.271,430.008 359.918,436.249 358.364,437.286C347.092,444.808 334.606,441.677 332.583,441.169C330.309,440.599 268.999,424.202 268.614,424.093C256.138,420.576 237.493,416.206 235.35,414.746C227.784,409.588 232.356,397.789 242.503,400.487C255.449,403.929 335.354,425.375 335.522,425.421C343.96,427.761 347.92,425.12 351.502,422.503C355.58,419.524 359.882,410.289 354.881,402.275C350.042,394.523 345.963,395.434 317.496,387.514C314.299,386.624 314.276,386.732 277.427,376.776C227.947,363.409 227.874,363.392 223.523,362.398C215.569,360.58 206.986,362.55 205.587,362.871C205.371,362.921 161.738,373.806 161.62,373.857C160.053,374.536 160.08,374.772 160.039,376.482C159.981,378.928 160.133,449.769 159.967,456.497C159.89,459.62 161.901,459.979 164.59,461.322C184.554,471.299 184.751,471.965 200.5,471.965C308.14,471.965 308.138,471.957 311.5,472.034ZM139.5,480.034C142.633,480.016 143.917,480.652 143.965,477.512C144.012,474.373 143.871,360.642 144.034,354.505C144.119,351.299 142.699,352.035 139.5,352.035C104.743,352.03 104.756,352.132 98.505,351.966C96.642,351.917 96.181,352.36 96.035,352.5L96.035,475.5C96.035,478.617 95.36,479.918 98.488,479.965C102.337,480.023 131.722,479.855 139.5,480.034Z" style="fill:rgb(242,173,148);fill-opacity:1;"/>
                <path d="M441.976,349.517C443.988,348.373 445.476,347.537 446.286,347.101C446.449,347.013 446.885,346.795 447.389,346.546C447.389,346.546 449.475,345.525 449.597,345.464C450.35,345.088 454.737,344.211 455.188,344.12C457.097,343.739 458.768,343.498 460.271,343.356C459.876,343.496 459.485,343.661 459.1,343.853C453.149,346.829 447.394,348.502 441.976,349.517Z" style="fill:rgb(242,173,148);fill-opacity:1;"/>
            </g>
            <g>
                <path d="M311.835,369.357C316.117,370.512 329.957,374.248 329.957,374.248C331.076,374.66 332.72,375.009 334.975,375.621C327.259,374.224 317.617,371.289 311.835,369.357Z" style="fill:rgb(242,173,148);fill-opacity:1;"/>
                <path d="M308.465,368.573L204.773,346.683C210.416,345.621 217.782,344.999 226.453,346.724C231.894,347.807 297.71,365.668 306.617,368.037C307.296,368.218 307.912,368.408 308.465,368.573Z" style="fill:rgb(242,173,148);fill-opacity:1;"/>
            </g>
        </g>
        <path d="M171.434,354.9C171.383,354.913 171.538,354.876 171.59,354.863C175.285,353.98 175.878,353.859 175.961,351.518C176.019,349.857 175.867,264.821 176.034,258.505C176.098,256.093 175.221,256.051 171.5,255.966L155.5,255.966C154.57,255.966 146.778,257.125 144.532,250.489C143.16,246.437 145.38,243.714 147.369,239.434C149.256,235.373 149.479,235.5 151.369,231.434C152.847,228.252 164.828,204.586 166.007,202.256C166.282,201.714 168.334,197.66 169.369,195.434C169.995,194.085 175.472,183.308 176.007,182.256C177.052,180.201 178.197,176.875 182.825,176.174L370.998,176.174C372.282,176.232 373.688,176.307 375.49,176.402C377.151,176.49 379.995,176.319 380.391,176.278C380.637,176.252 380.883,176.212 381.128,176.174L382.989,176.174C383.119,176.198 383.249,176.216 383.381,176.216C383.411,176.216 383.505,176.197 383.66,176.174L386.19,176.174C391.565,176.661 393.121,176.372 396.523,176.174L457.375,176.174C459.673,176.629 461.941,177.916 463.631,181.432C463.648,181.466 478.677,211.583 479.244,212.628C481.917,217.55 481.571,217.704 484.244,222.628C486.917,227.55 486.571,227.704 489.244,232.628C491.384,236.569 491.108,236.692 493.244,240.628C496.991,247.531 496.09,249.789 494.473,252.482C491.923,256.731 485.134,255.965 484.5,255.966C465.835,255.976 464.728,255.834 464.035,256.5C463.992,256.541 464.126,335.122 463.966,340.497C463.935,341.535 464.06,342.201 464.369,342.655C462.978,342.696 461.6,342.886 460.271,343.356C458.768,343.498 457.097,343.739 455.188,344.12C454.737,344.211 450.35,345.088 449.597,345.464C449.518,345.504 448.333,346.08 447.389,346.546C447.389,346.546 447.965,343.165 447.965,336.5C447.965,257.632 447.971,257.632 447.918,257.396C447.649,256.189 446.609,256.011 446.448,255.983C446.298,255.957 440.676,255.967 356.5,255.966C352.362,255.966 347.438,256.994 344.369,250.567C340.277,241.997 331.159,225.242 329.351,219.625L328.496,219.478C328.346,219.677 327.91,219.416 327.76,219.616C327.393,220.108 328.035,220.193 328.035,231.5C328.036,372.225 328.021,372.226 328.107,372.6C328.291,373.399 328.882,373.852 329.957,374.248L311.79,369.342C311.515,369.25 311.248,369.16 310.991,369.073C311.813,368.988 312.04,368.29 312.037,366.496L312.034,228.5C312.037,220.277 312.678,220.175 312.238,219.617C312.084,219.421 311.65,219.719 311.496,219.523L310.651,219.628C309.523,223.128 309.408,223.08 297.247,247.373C295.002,251.858 293.554,256.247 286.498,256.034C283.995,255.958 283.997,255.966 217.5,255.966C192.81,255.966 192.652,255.883 192.035,256.5C192.024,256.511 191.959,258.238 191.966,258.505C192.042,261.392 192.035,261.389 192.035,329.5C192.035,348.466 191.926,348.745 192.707,349.155C193,349.309 193.476,349.314 194.126,349.215C186.391,351.139 180.572,352.625 171.434,354.9ZM177.5,240.034C281.318,240.034 281.32,240.037 281.467,240.014C283.531,239.69 283.447,239.203 288.339,229.419C300.891,204.314 305.197,195.7 305.34,195.42C305.674,194.767 306.121,194.162 306.346,193.464C306.783,192.1 304.749,192.027 304.566,192.021C299.044,191.823 299.044,192.035 235.5,192.035C194.538,192.035 194.544,192.042 191.503,191.967C188.383,191.89 188.005,193.911 186.668,196.585C168.322,233.266 167.204,235.531 166.667,236.584C166.334,237.236 165.886,237.84 165.663,238.538C165.227,239.896 167.25,239.972 167.433,239.979C169.461,240.055 171.132,239.815 177.5,240.034ZM468.5,240.034L470.5,240.035C473.207,240.038 473.189,240.113 473.416,240.057C474.643,239.754 474.379,238.674 474.346,238.536C474.151,237.739 473.956,237.826 469.734,229.383C451.603,193.12 451.608,193.105 451.247,192.749C450.405,191.92 450.223,192.035 431.5,192.035C339.139,192.035 339.14,192.043 336.502,191.962C335.864,191.943 335.206,191.791 334.587,191.945C333.367,192.25 333.629,193.324 333.663,193.462C333.857,194.259 334.052,194.172 338.273,202.614C356.39,238.849 356.379,238.873 356.758,239.248C357.594,240.079 357.779,239.965 377.5,239.965C465.168,239.965 465.164,239.958 468.5,240.034Z" style="fill:rgb(191,83,44);fill-opacity:1;"/>
        <g>
            <path d="M182.825,176.174C183.335,176.096 183.888,176.051 184.487,176.042C190.255,175.961 190.479,176.515 191.517,175.517C192,175.053 191.841,174.933 192.032,160.502C192.209,147.191 183.76,141.681 179.673,137.339C152.289,108.247 153.367,62.355 183.629,34.643C191.048,27.849 203.237,20.532 208.482,20.773C212.164,20.943 215.639,23.741 215.927,28.464C216.085,31.051 215.789,81.095 216.091,82.573C216.451,84.334 216.87,84.151 222.707,88.186C223.328,88.615 228.562,92.234 230.559,93.4C232.724,94.664 234.291,92.719 236.447,91.421C236.761,91.232 246.105,84.964 246.588,84.614C248.227,83.427 247.965,83.044 247.965,72.5C247.965,28.101 247.91,28.071 248.376,26.463C248.884,24.71 252.032,18.277 260.379,21.787C285.533,32.364 303.626,58.126 303.947,86.493C304.041,94.816 303.584,118.928 281.34,140.332C275.909,145.557 272.114,149.775 272.037,160.496C272.028,161.613 271.937,174.268 271.983,174.448C272.401,176.081 272.794,175.939 274.488,175.965C277.952,176.017 309.434,175.864 315.498,176.033C319.314,176.14 318.841,174.804 324.678,169.601C324.812,169.481 325.095,169.458 325.109,169.279C325.132,168.976 324.549,167.916 324.395,167.868C323.507,167.589 312.071,169.12 308.275,166.929C303.386,164.107 304.034,161.604 304.034,148.5C304.034,127.753 303.995,127.766 304.22,126.438C304.514,124.7 306.469,120.511 311.455,120.09C314.443,119.837 322.508,120.1 323.469,120.131C324.257,120.157 324.431,120.402 324.778,119.716C325.454,118.377 324.693,118.435 323.565,117.438C322.957,116.9 318.912,112.888 318.51,112.49C315.569,109.574 313.597,107.745 313.891,103.541C314.083,100.805 315.371,99.354 319.863,94.863C321.449,93.341 321.433,93.351 333.283,81.5C339.683,74.864 341.098,73.838 344.496,73.861C347.17,73.88 348.655,74.113 356.937,83.07C357.054,83.198 358.102,84.33 358.402,84.671C358.521,84.806 358.545,85.09 358.725,85.105C359.018,85.128 360.084,84.547 360.133,84.394C360.41,83.524 358.888,72.056 361.062,68.272C363.871,63.382 366.65,64.034 378.5,64.034C400.442,64.034 400.44,63.991 401.562,64.22C404.134,64.746 407.524,67.056 407.907,71.455C408.187,74.664 407.902,82.509 407.867,83.469C407.839,84.248 407.57,84.438 408.269,84.794C408.585,84.954 408.927,85.154 409.28,85.123C409.554,85.099 409.305,84.804 411.533,82.532C411.612,82.452 412.098,81.956 412.525,81.524C418.784,75.199 420.059,73.577 424.458,73.891C428.113,74.152 429.974,76.755 438.616,85.384C452.246,98.993 453.673,99.772 454.105,103.542C454.653,108.323 450.864,111.136 446.477,115.476C444.941,116.996 444.944,116.978 443.329,118.402C443.193,118.521 442.908,118.544 442.893,118.725C442.869,119.02 443.451,120.085 443.605,120.133C444.487,120.413 455.939,118.878 459.727,121.068C464.613,123.893 463.966,126.658 463.966,138.5C463.966,160.426 464.009,160.426 463.775,161.561C463.235,164.174 460.892,167.527 456.546,167.908C453.622,168.164 445.492,167.901 444.531,167.87C443.744,167.845 443.569,167.596 443.222,168.282C443.064,168.594 442.865,168.93 442.891,169.279C442.912,169.552 443.199,169.317 445.457,171.543C448.185,174.231 449.07,175.831 451.468,175.948C453.19,176.032 455.295,175.762 457.375,176.174L396.523,176.174C397.813,176.098 399.369,176.036 401.5,176.034C425.17,176.015 425.31,176.369 425.838,175.875C427.128,174.665 426.021,174.5 424.693,173.314C420.773,169.817 420.043,167.954 419.819,167.382C419.308,166.079 418.289,164.832 421.935,156.709C422.179,156.166 424.024,153.031 427.439,152.252C429.423,151.799 445.919,152.152 446.448,152.017C448.081,151.599 447.939,151.206 447.965,149.512C447.979,148.556 448.138,138.025 448.017,137.552C447.599,135.919 447.206,136.061 445.512,136.035C428.73,135.782 424.595,137.873 421.253,129.598C418.769,123.444 417.637,121.635 423.65,115.651C433.963,105.388 433.989,105.403 434.068,105.231C434.208,104.927 434.206,103.881 434.113,103.704C433.872,103.25 424.8,94.155 424.295,93.889C423.377,93.405 422.479,94.21 422.361,94.316C419.359,97.007 410.594,106.603 408.57,107.625C404.272,109.796 401.736,108.09 398.403,106.744C397.524,106.389 395.778,105.945 394.021,103.909C391.232,100.679 392.175,98.308 392.034,82.505C392.006,79.332 390.667,80.035 387.5,80.035C383.002,80.034 383.017,80.086 378.505,79.966C376.642,79.917 376.181,80.36 376.035,80.5C375.92,80.61 376.063,80.633 376.035,82.488C376.012,84.013 376.001,83.993 375.966,85.5C375.966,100.365 376.193,100.538 374.851,102.696C373.574,104.748 372.733,105.593 367.542,107.594C360.362,110.36 359.689,108.358 349.191,97.807C345.577,94.174 345.634,94.118 345.231,93.933C344.925,93.794 343.88,93.796 343.705,93.889C343.239,94.136 334.141,103.225 333.887,103.704C333.401,104.622 334.209,105.522 334.315,105.64C336.941,108.565 346.618,117.427 347.628,119.428C349.791,123.711 348.087,126.272 346.743,129.596C346.394,130.459 345.943,132.212 343.904,133.973C340.671,136.766 338.236,135.826 322.505,135.966C320.573,135.983 320.181,136.36 320.035,136.5L320.035,146.5C320.035,150.139 319.298,151.917 322.488,151.965C339.322,152.219 343.399,150.123 346.744,158.403C348.515,162.788 350.615,166.015 345.351,171.353C342.183,174.564 341.872,174.274 341.741,174.642C341.559,175.154 342.261,176.092 342.574,176.15C343.119,176.252 343.115,175.965 349.5,175.965C363.393,175.965 366.434,175.966 370.998,176.174L182.825,176.174ZM224.034,156.5C224.04,154.657 223.241,148.051 227.492,145.488C227.702,145.361 231.559,142.658 235.727,145.068C241.724,148.535 239.731,153.358 240.035,173.512C240.061,175.206 239.919,175.599 241.552,176.017C242.025,176.138 252.556,175.979 253.512,175.965C255.206,175.939 255.599,176.081 256.017,174.448C256.097,174.136 255.909,158.606 256.18,155.468C257.234,143.273 264.344,135.019 265.588,133.575C268.608,130.069 275.378,125.049 280.674,115.6C288.664,101.347 288.003,89.32 287.926,85.482C287.772,77.751 284.368,58.421 267.881,45.048C265.49,43.108 265.546,42.656 264.662,42.976C263.74,43.31 263.895,43.53 263.913,44.527C263.972,47.689 263.966,47.682 263.966,79.5C263.966,89.376 264.879,91.852 258.246,96.117C252.368,99.897 252.476,100.031 249.244,102.115C234.251,111.785 233.665,113.887 227.482,110.529C227.049,110.294 211.392,99.821 211.32,99.771C205.668,95.827 201.211,94.093 200.241,89.559C199.927,88.094 199.965,88.081 199.965,50.5C199.965,43.888 200.327,43.737 199.757,43.255C199.134,42.727 199.008,42.617 198.376,43.148C194.761,46.186 194.74,46.154 194.436,46.43C179.378,60.129 177.231,76.131 176.68,79.53C172.918,102.727 185.577,119.28 186.912,121.193C187.283,121.724 191.598,126.865 192.919,128.065C193.626,128.706 198.89,133.485 201.026,136.818C209.692,150.338 207.819,159.187 208.035,173.512C208.061,175.206 207.919,175.599 209.552,176.017C210.025,176.138 220.556,175.979 221.512,175.965C223.206,175.939 223.599,176.081 224.017,174.448C224.037,174.368 224.034,174.024 224.034,156.5Z" style="fill:rgb(1,38,38);fill-opacity:1;"/>
            <g transform="matrix(1,0,0,1,14,18)">
                <path d="M369.492,94.043C369.896,94.048 373.117,94.087 374.529,94.315C402.107,98.759 410.871,131.891 391.571,149.578C383.01,157.423 375.965,156.467 371.74,156.868C370.324,157.003 369.482,156.784 369.381,156.784C368.981,156.785 368.591,156.952 368.19,156.944C367.969,156.939 367.996,156.788 365.437,156.655C364.784,156.621 364.13,156.606 363.477,156.571C350.295,155.87 334.141,139.823 338.89,118.59C340.758,110.238 349.323,94.683 369.492,94.043ZM370.491,142.003C370.328,141.993 360.716,142.478 355.833,133.328C350.888,124.065 356.686,111.979 367.453,110.23C379.446,108.282 391.268,121.1 383.49,134.493C381.441,138.021 376.642,141.196 372.549,141.778C371.866,141.875 371.174,141.906 370.491,142.003Z" style="fill:rgb(1,38,38);fill-opacity:1;"/>
            </g>
        </g>
    </g>
</svg>
