<?xml version="1.0" encoding="UTF-8" standalone="no"?>
<!DOCTYPE svg PUBLIC "-//W3C//DTD SVG 1.1//EN" "http://www.w3.org/Graphics/SVG/1.1/DTD/svg11.dtd">
<svg width="100%" height="100%" viewBox="0 0 512 512" version="1.1" xmlns="http://www.w3.org/2000/svg" xmlns:xlink="http://www.w3.org/1999/xlink" xml:space="preserve" xmlns:serif="http://www.serif.com/" style="fill-rule:evenodd;clip-rule:evenodd;stroke-linejoin:round;stroke-miterlimit:2;">
    <g id="Research-Synthesis" serif:id="Research Synthesis">
        <g>
            <path d="M380.971,194.939C380.42,195.648 379.787,196.205 379.063,196.568C358.735,206.731 358.374,172.073 281.648,187.418C275.658,188.616 250.951,200.812 249.356,196.029C248.886,194.619 248.419,193.349 247.957,192.167C252.167,189.959 254.845,188.827 255.309,188.319C256.066,187.49 255.965,187.329 255.965,165.5C255.965,142.603 255.804,142.456 257.062,140.271C259.875,135.383 262.643,136.034 274.5,136.034C296.442,136.034 296.44,135.991 297.562,136.22C303.758,137.486 303.929,143.646 303.953,144.481C303.984,145.601 303.952,174.35 303.972,174.466C304.283,176.247 304.679,176.264 306.484,176.197C311.516,176.008 311.493,175.973 316.521,176.147C318.778,176.226 319.624,176.824 319.945,174.576C319.996,174.217 319.94,97.102 319.977,96.511C320.583,86.77 329.43,88.034 332.5,88.034C355.767,88.034 355.757,88.047 358.498,87.967C363.066,87.834 367.83,90.071 367.953,96.481C367.991,98.488 367.938,186.135 367.982,186.474C368.325,189.118 370.342,189.163 373.365,190.775C376.343,192.362 378.506,193.489 380.971,194.939ZM335.966,168.5C335.966,177.071 335.471,178.139 338.439,178.766C340.911,179.288 343.034,179.71 343.434,179.789C347.738,180.644 350.636,181.98 351.447,181.427C352.045,181.018 351.965,180.821 351.965,157.5C351.965,109.387 351.958,109.391 352.034,106.505C352.119,103.299 350.699,104.035 347.5,104.035C337.481,104.033 336.64,103.918 336.035,104.5C335.994,104.54 336.126,163.856 335.966,168.5ZM271.966,168.5L271.965,178.499C271.964,179.143 271.835,179.799 271.962,180.431C271.993,180.584 272.212,181.674 273.505,181.624C274.955,181.569 275.186,180.73 284.411,179.018C287.288,178.485 287.941,178.43 287.965,175.507C287.978,173.751 288.135,154.015 288.017,153.552C287.599,151.919 287.206,152.061 285.512,152.035C284.556,152.021 274.106,151.863 273.552,151.983C273.03,152.096 272.42,152.13 272.035,152.5C271.994,152.539 272.14,163.46 271.966,168.5Z" style="fill:rgb(1,38,38);"/>
            <path d="M244.638,232.831C249.083,229.072 255.705,224.087 263.716,219.936C287.09,207.826 306.624,208.138 312.505,208.045C313.507,208.022 334.631,207.412 356.671,218.137C364.495,221.944 371.595,226.512 377.939,231.696C378.416,236.098 377.735,242.355 376.376,252.06C375.071,250.666 373.495,249.139 370.161,245.912C369.441,245.215 369.388,245.194 368.394,245.345C367.785,245.437 367.976,245.661 368.007,246.289C368.043,247.023 368.035,266.121 368.035,275.5C368.035,278.617 367.36,279.918 370.488,279.965C373.504,280.01 381.245,278.815 383.504,285.499C384.495,288.43 383.672,305.779 384.033,318.497C384.16,323.002 381.949,327.831 375.518,327.953C374.772,327.967 374.773,327.966 296.5,327.966C252.101,327.966 252.105,327.958 249.502,328.033C245.286,328.155 240.171,326.197 240.047,319.518C239.967,315.188 240.145,295.666 239.967,289.502C239.823,284.536 242.377,280.157 248.483,280.046C254.436,279.938 254.616,280.383 255.517,279.517C256.034,279.02 255.965,278.88 255.965,251.5C255.965,249.926 256.18,245.859 256.087,245.643C255.793,244.957 254.575,245.355 254.449,245.396C254.137,245.497 250.634,248.989 250.311,249.31C248.043,251.57 245.94,253.888 243.996,256.254C244.042,250.382 244.186,240.978 244.638,232.831ZM271.966,265.5C271.966,278.742 271.866,278.875 272.483,279.517C273.235,280.299 274.552,279.744 285.495,280.034C288.701,280.119 287.965,278.699 287.965,275.5C287.971,234.911 287.866,234.916 288.037,230.504C288.19,226.564 286.099,227.899 282.4,229.227C276.552,231.326 273.076,233.159 272.653,233.64C271.943,234.448 272.035,234.599 272.035,258.5C272.035,262.01 272.046,261.991 271.966,265.5ZM363.5,312.034L366.448,312.017C368.612,311.464 367.716,310.52 368.034,298.505C368.105,295.847 367.161,296.035 364.5,296.035C261.904,296.015 261.915,296.056 258.505,295.966C256.642,295.917 256.181,296.36 256.035,296.5C255.94,296.591 256.193,300.933 255.966,309.495C255.895,312.153 256.839,311.965 259.5,311.965C360.847,311.985 360.841,311.943 363.5,312.034ZM320.034,264.5C319.863,257.051 320.01,240.611 319.965,227.496C319.963,227.035 320.252,224.778 318.552,224.306C316.823,223.826 309.287,224.067 308.481,224.092C305.015,224.203 303.855,224.04 303.966,227.502C304.143,233.046 304.029,233.04 304.035,275.5C304.035,278.699 303.299,280.119 306.505,280.034C317.448,279.744 318.765,280.299 319.517,279.517C320.129,278.88 320.034,278.741 320.034,264.5ZM352.034,264.5C351.935,261.633 351.965,261.646 351.965,258.5C351.965,234.604 352.057,234.457 351.349,233.635C350.69,232.871 346.03,230.821 341.599,229.23C337.893,227.9 335.811,226.57 335.963,230.504C336.134,234.916 336.029,234.911 336.035,275.5C336.035,278.699 335.299,280.119 338.505,280.034C349.448,279.744 350.765,280.299 351.517,279.517C352.129,278.88 352.034,278.741 352.034,264.5Z" style="fill:rgb(1,38,38);"/>
            <g transform="matrix(1,0,0,1,6,6)">
                <path d="M113.966,163.5C113.966,176.742 113.866,176.875 114.483,177.517C114.976,178.029 115.113,177.965 144.5,177.965C171.156,177.965 171.255,177.836 173.348,178.824C178.488,181.253 178.17,186.604 177.797,191.526C175.831,217.472 160.118,233.547 157.362,236.366C128.191,266.206 78.473,265.554 50.351,231.619C27.218,203.703 27.277,158.622 59.764,130.814C75.177,117.622 93.345,115.135 96.526,114.7C103.723,113.715 110.447,112.86 113.171,118.654C114.095,120.618 113.966,120.711 113.966,138.5L113.966,163.5ZM98.034,163.5C98.034,181.562 98.087,181.597 97.7,182.585C97.314,183.569 97.131,183.465 76.82,203.819C62.362,218.308 62.365,218.306 62.362,218.308C60.922,219.196 60.725,218.711 59.697,217.358C58.59,215.9 54.327,208.923 52.236,201.579C45.148,176.688 55.443,151.956 75.719,138.851C85.245,132.694 95.712,130.823 96.502,130.874C97.734,130.952 97.75,131.203 97.945,132.414C98.043,133.023 97.85,158.172 98.034,163.5ZM114.5,193.966C119.679,194.144 159.015,193.962 159.587,194.053C160.801,194.248 161.054,194.267 161.119,195.492C161.153,196.112 160.621,198.276 160.562,198.515C152.505,231.323 120.442,248.274 90.429,239.736C82.853,237.581 76.048,233.344 74.656,232.284C73.328,231.273 72.836,231.088 73.709,229.649C73.819,229.467 104.511,198.866 107.193,196.192C109.781,193.611 110.127,193.97 114.5,193.966Z" style="fill:rgb(1,38,38);"/>
            </g>
            <g transform="matrix(1,0,0,1,6,6)">
                <path d="M133.5,321.966C42.003,321.966 42,321.973 41.455,321.908C34.249,321.048 34.071,314.413 34.047,313.518C33.964,310.434 34.147,289.722 33.967,283.502C33.823,278.536 36.377,274.157 42.483,274.046C46.44,273.974 130.787,274.133 136.498,273.967C147.709,273.64 145.966,285.478 145.966,285.5C145.978,312.238 146.183,312.238 145.906,314.545C145.847,315.036 145.476,318.127 143.136,320.072C140.252,322.47 135.596,321.959 133.5,321.966ZM125.5,306.034C118.144,305.865 55.908,306.016 52.488,305.965C49.298,305.917 50.035,304.139 50.035,300.5C50.035,299.7 50.035,290.5 50.035,290.5C50.181,290.36 50.642,289.917 52.505,289.966C58.763,290.132 124.236,289.986 127.512,290.035C129.206,290.061 129.599,289.919 130.017,291.552C130.138,292.025 129.979,302.556 129.965,303.512C129.939,305.206 130.081,305.599 128.448,306.017C128.448,306.017 125.736,306.033 125.5,306.034Z" style="fill:rgb(1,38,38);"/>
            </g>
            <g transform="matrix(1,0,0,1,6,6)">
                <path d="M130.034,94.5C130.041,92.342 129.537,87.707 131.916,84.854C132.96,83.603 135.383,82.035 138.505,81.984C149.134,81.81 159.87,85.447 161.65,86.05C189.388,95.447 201.064,119.346 201.236,119.643C207.441,130.354 210.565,146.537 209.904,154.541C209.595,158.278 206.706,162.212 200.498,162.033C191.277,161.767 138.688,162.24 136.438,161.775C130.801,160.612 130.18,155.309 130.091,154.544C130.025,153.978 130.034,153.976 130.034,94.5ZM145.966,104.5C146.051,100.737 146.002,100.735 146.055,100.412C146.082,100.247 146.293,98.954 147.494,98.885C147.614,98.878 149.928,99.278 150.516,99.434C154.24,100.422 158.057,101.417 163.623,104.264C182.12,113.728 188.758,130.462 189.271,131.603C191.829,137.297 193.203,144.076 193.115,144.507C192.757,146.26 192.277,146.096 190.496,146.035C185.513,145.866 151.815,146.015 148.488,145.965C146.794,145.939 146.401,146.081 145.983,144.448C145.963,144.371 145.966,144.378 145.966,104.5Z" style="fill:rgb(1,38,38);"/>
            </g>
        </g>
        <g>
            <path d="M353.568,441.392C314.822,454.074 274.223,447.055 246.226,430.985C240.422,427.653 240.389,427.745 234.826,424.038C232.812,422.697 220.916,413.861 212.897,405.134C204.153,395.618 198.709,387.094 197.635,385.412C188.395,370.943 185.946,361.049 184.575,360.382C183.767,359.99 183.715,360.035 138.5,360.035C30.638,360.035 30.638,360.073 28.463,359.733C17.149,357.966 8.24,348.295 8.053,336.518C8.032,335.19 8.034,335.191 8.034,38.5C8.034,32.054 6.611,21.802 17.233,13.162C24.599,7.17 32.541,8.034 39.5,8.034L395.5,8.034C400.906,7.911 411.49,7.121 419.7,18.363C423.821,24.006 423.927,30.379 423.945,31.482C423.998,34.665 423.94,232.832 423.977,233.485C424.144,236.409 427.129,239.32 430.093,244.725C439.966,262.731 441.93,271.798 444.491,281.502C444.521,281.616 449.497,301.404 447.508,322.501C445.91,339.45 443.792,346.549 439.31,359.429L439.253,359.59C430.359,358.907 425.328,359.595 421.536,360.991C421.932,360.114 422.289,359.288 422.591,358.54C422.943,357.667 436.035,329.629 430.724,294.465C424.176,251.113 396.261,220.106 366.285,204.941C338.741,191.007 312.508,192.003 311.5,191.966C243.432,192.639 192.596,247.558 192.049,310.493C191.552,367.512 229.131,411.014 274.373,425.886C314.548,439.092 346.97,427.551 359.125,422.329C358.246,423.895 357.427,425.43 356.682,426.918C354.781,430.722 353.702,435.863 353.568,441.392ZM380.971,194.939C383.943,196.688 387.353,198.906 393.158,202.967C394.965,204.231 403.898,211.613 405.533,213.463C406.37,214.41 406.302,214.731 407.555,214.596C408.135,214.533 407.989,214.324 407.986,213.754L407.965,77.5C407.965,73.861 408.702,72.083 405.512,72.035C401.989,71.982 351.957,72.137 344.5,71.966C25.626,71.966 25.641,71.964 25.552,71.983C25.03,72.096 24.42,72.13 24.035,72.5C23.993,72.541 24.123,329.094 23.967,334.498C23.834,339.13 26.125,343.833 32.482,343.953C36.342,344.026 172.04,343.866 176.499,344.035C176.667,344.041 178.414,344.038 178.431,344.033C180.49,343.409 179.667,342.673 179.208,340.568C177.154,331.139 169.311,293.989 189.96,251.728C201.562,227.982 218.35,213.208 221.468,210.464C232.175,201.042 241.738,195.43 247.957,192.167C248.419,193.349 248.886,194.619 249.356,196.029C250.951,200.812 275.658,188.616 281.648,187.418C358.374,172.073 358.735,206.731 379.063,196.568C379.787,196.205 380.42,195.648 380.971,194.939ZM403.5,56.034L406.448,56.017C408.081,55.599 407.939,55.206 407.965,53.512C408.026,49.477 407.849,39.914 408.033,33.503C408.155,29.213 406.139,24.167 399.517,24.047C395.676,23.977 39.098,24.13 33.502,23.967C24.279,23.699 24.074,31.465 24.047,32.482C23.951,36.126 24.168,45.878 23.966,53.495C23.881,56.701 25.301,55.965 28.5,55.965C202.567,55.99 397.357,55.893 403.5,56.034Z" style="fill:rgb(242,173,148);"/>
            <path d="M227.656,336.754C228.148,338.399 228.686,340.011 229.267,341.585C230.32,344.438 231.103,343.965 235.5,343.965C387.51,343.968 387.51,343.943 391.495,344.033C394.278,344.096 394.226,342.794 395.454,339.484C395.77,338.634 396.078,337.691 396.376,336.679C404.331,336.872 409.628,337.015 409.74,337.038C410.914,337.273 411.887,337.53 412.687,337.821C411.704,341.692 410.495,345.536 409.056,349.337C407.148,354.377 404.927,358.968 402.589,363.095C400.021,363.575 396.898,364.064 393.056,365.024C390.344,365.702 386.082,366.325 380.657,366.888C381.428,365.906 382.192,364.881 382.94,363.814C384.288,361.892 384.937,362.035 384.612,360.417C384.483,359.773 384.188,359.96 378.5,359.966C377.536,359.999 377.552,360.035 376.5,360.035C240.758,360.035 240.779,360.036 240.318,360.023C239.715,360.006 239.503,359.813 239.383,360.412C239.18,361.42 239.219,361.464 239.838,362.278C242.984,366.412 242.896,366.607 246.235,370.303C236.568,369.992 229.553,369.492 226.752,368.792C225.893,368.577 225.146,368.353 224.49,368.122C219.348,360.051 214.987,350.69 212.042,340.428C214.856,337.635 220.037,336.868 227.656,336.754Z" style="fill:rgb(242,173,148);"/>
        </g>
        <g>
            <path d="M439.253,359.59C436.77,366.644 434.651,367.311 437.661,370.339C455.883,388.672 456.209,388.419 458.246,391.654C461.936,397.513 460.147,403.603 459.852,404.604C459.104,407.149 458.808,407.468 460.662,409.34C476.591,425.417 476.772,425.214 492.66,441.342C495.398,444.121 498.611,447.579 501.473,454.511C508.758,472.16 499.861,496.261 477.533,502.613C468.993,505.042 459.711,503.968 453.311,500.921C443.816,496.4 444.33,495.519 421.343,472.658C408.141,459.527 408.137,459.452 407.554,459.315C405.863,458.918 401.221,462.159 394.446,459.641C390.144,458.042 388.089,455.396 379.341,446.659C370.147,437.478 370.245,437.376 369.339,436.702C367.637,435.437 366.453,436.635 359.429,439.316C357.482,440.059 355.527,440.75 353.568,441.392C353.702,435.863 354.781,430.722 356.682,426.918C357.427,425.43 358.246,423.895 359.125,422.329C361.145,421.462 362.605,420.769 363.448,420.393C371.767,416.682 395.132,403.612 410.933,379.797C411.154,379.463 411.153,379.471 413.712,375.633C415.781,372.53 419.293,365.955 421.536,360.991C425.328,359.595 430.359,358.907 439.253,359.59ZM387.663,432.336C388.542,433.215 398.629,443.291 398.658,443.314C400.508,444.799 401.49,443.176 405.82,438.818C424.28,420.24 424.484,420.475 442.825,401.805C444.974,399.617 443.636,399.013 440.817,396.184C435.319,390.669 435.344,390.664 429.811,385.169C427.065,382.441 426.718,384.846 424.27,388.348C416.539,399.407 412.509,403.186 408.951,406.93C400.172,416.169 390.477,422.782 388.346,424.267C387.129,425.115 384.433,426.639 384.131,427.321C383.512,428.717 384.084,428.721 385.176,429.809C386.436,431.065 386.402,431.082 387.663,432.336ZM442.184,425.184C441.002,426.367 441.012,426.35 439.82,427.5C437.385,430.008 425.088,442.207 421.175,446.195C418.975,448.437 420.38,448.986 424.186,452.812C452.664,481.441 452.601,481.512 455.329,483.721C460.152,487.628 471.274,491.239 480.899,482.965C481.523,482.428 485.92,479.16 487.584,471.517C489.706,461.769 483.307,454.776 482.303,453.678C482.187,453.552 482.185,453.554 456.816,428.184L454.816,426.184C449.265,420.447 449.276,420.374 448.606,420.214C447.011,419.833 446.112,421.257 442.184,425.184Z" style="fill:rgb(191,83,44);"/>
            <path d="M311.963,175.493C387.312,175.493 448.486,236.667 448.486,312.016C448.486,387.365 387.312,448.539 311.963,448.539C236.614,448.539 175.44,387.365 175.44,312.016C175.44,236.667 236.614,175.493 311.963,175.493ZM311.963,192.827C246.181,192.827 192.774,246.234 192.774,312.016C192.774,377.799 246.181,431.206 311.963,431.206C377.746,431.206 431.153,377.799 431.153,312.016C431.153,246.234 377.746,192.827 311.963,192.827Z" style="fill:rgb(191,83,44);"/>
            <path d="M401.797,258.519C411.144,274.175 416.52,292.473 416.52,312.016C416.52,369.722 369.669,416.573 311.963,416.573C254.257,416.573 207.407,369.722 207.407,312.016C207.407,282.666 219.524,256.124 239.027,237.127C241.201,235.01 243.466,232.986 245.816,231.063C263.843,216.314 286.877,207.46 311.963,207.46C312.419,207.46 312.874,207.463 313.329,207.469C313.427,207.47 313.525,207.473 313.623,207.477C316.902,207.631 320.017,207.818 322.976,208.039C323.071,208.046 323.165,208.055 323.259,208.065C344.298,210.331 363.478,218.845 378.899,231.715C387.957,239.275 395.718,248.338 401.797,258.519ZM386.914,267.405C381.838,258.903 375.357,251.335 367.793,245.023C354.969,234.32 339.029,227.225 321.538,225.313C318.819,225.112 315.963,224.941 312.943,224.799C312.617,224.795 312.29,224.793 311.963,224.793C291.04,224.793 271.827,232.176 256.792,244.478C254.829,246.085 252.937,247.775 251.122,249.543C234.852,265.391 224.74,287.532 224.74,312.016C224.74,360.156 263.823,399.239 311.963,399.239C360.103,399.239 399.186,360.156 399.186,312.016C399.186,295.719 394.709,280.46 386.914,267.405Z" style="fill:rgb(191,83,44);"/>
        </g>
    </g>
</svg>
