<?xml version="1.0" encoding="UTF-8" standalone="no"?>
<!DOCTYPE svg PUBLIC "-//W3C//DTD SVG 1.1//EN" "http://www.w3.org/Graphics/SVG/1.1/DTD/svg11.dtd">
<svg width="100%" height="100%" viewBox="0 0 512 512" version="1.1" xmlns="http://www.w3.org/2000/svg" xmlns:xlink="http://www.w3.org/1999/xlink" xml:space="preserve" xmlns:serif="http://www.serif.com/" style="fill-rule:evenodd;clip-rule:evenodd;stroke-linecap:square;stroke-miterlimit:1.5;">
    <g id="Teaching---Enablement" serif:id="Teaching &amp; Enablement">
        <g transform="matrix(1,0,0,1,14,14)">
            <path d="M17.966,481.5C17.443,481.613 16.971,481.904 16.448,482.017C16.14,482.084 15.393,481.966 13.5,481.966C3.636,481.966 2.622,482.087 2.034,481.5C2.023,481.489 1.958,479.761 1.966,479.495C2.174,471.62 1.894,397.476 2.109,391.475C2.33,385.293 5.628,369.227 21.592,359.653C35.647,351.224 49.565,354.887 50.886,353.975C51.617,353.47 51.823,353.365 51.395,352.582C51.283,352.377 50.382,352.297 47.459,349.543C30.194,333.272 27.98,301.874 50.572,283.591C68.094,269.411 96.053,270.226 112.421,290.563C119.484,299.338 124.462,313.169 120.695,328.552C117.978,339.649 110.712,348.215 106.426,351.417C104.913,352.547 103.62,352.775 105.106,353.946C105.461,354.226 105.517,354.094 108.501,354.042C124.193,353.767 126.025,354.088 127.525,354.351C137.038,356.018 140.484,359.446 157.402,370.646C168.483,377.982 168.438,378.015 169.408,378.64C179.501,385.133 179.147,386.121 184.449,386.856C203.503,389.497 203.455,389.691 222.543,392.227C223.182,392.312 227.474,392.882 230.516,393.395C233.397,393.881 242.316,393.748 242.033,403.502C241.844,410.031 242.043,422.319 241.952,425.519C241.736,433.157 235.412,434.117 232.498,434.033C226.581,433.862 182.617,434.029 178.482,433.953C175.462,433.898 175.435,433.707 162.613,427.278C161.173,426.556 145.116,418.505 144.629,418.241C139.261,415.329 139.064,415.452 138.623,415.728C137.734,416.283 137.937,416.465 137.946,417.517C137.974,420.918 137.966,420.9 137.966,438.5C137.966,481.5 137.966,481.5 137.966,481.5C137.82,481.64 137.355,482.088 135.495,482.037C124.249,481.724 122.93,482.362 122.034,481.5C121.819,481.293 122.081,480.903 122.081,480.604C122.066,456.569 122.05,432.535 122.034,408.5C122.034,404.603 121.186,398.066 125.485,395.478C130.675,392.353 132.579,394.364 146.59,401.32C170.902,413.392 178.268,417.301 179.44,417.67C180.503,418.005 180.53,417.965 220.5,417.965C224.219,417.965 225.894,418.698 225.965,415.512C225.999,413.992 225.931,414.015 225.965,412.5C226.018,410.174 226.628,409.496 224.426,408.778C223.418,408.449 199.606,405.171 197.446,404.874C180.042,402.478 180.07,402.293 178.551,402.131C174.132,401.658 173.816,400.758 165.588,395.368C153.513,387.457 153.675,387.238 141.6,379.349C134.012,374.391 130.311,371.168 125.545,370.271C122.54,369.706 52.529,370.258 43.501,369.966C29.482,369.513 19.931,379.616 18.257,390.461C17.722,393.929 18.25,473.204 17.966,481.5ZM78.493,289.977C84.172,290.454 92.301,291.57 99.69,300.346C107.785,309.96 109.201,327.524 96.709,338.739C83.074,350.98 61.489,347.324 52.868,330.321C48.942,322.577 47.7,308.331 58.739,297.751C67.032,289.805 76.655,290.062 78.493,289.977Z" style="fill:rgb(191,83,44);fill-opacity:1;"/>
        </g>
        <g>
            <g transform="matrix(1,0,0,1,14,14)">
                <path d="M337.966,481.5C337.443,481.613 336.971,481.906 336.449,482.02C336.134,482.088 335.402,481.966 333.5,481.966C323.573,481.966 322.622,482.088 322.034,481.5C322.023,481.489 321.958,479.761 321.966,479.495C322.049,476.339 322.033,476.341 322.034,390.5C322.034,386.464 320.661,371.557 334.135,361.032C344.006,353.32 351.228,353.965 363.5,353.965C373.59,353.965 373.577,354.234 374.453,354.2C374.552,354.196 375.447,353.576 375.478,353.492C375.76,352.721 375.483,352.715 374.81,352.268C371.072,349.788 361.684,340.877 358.876,326.425C354.665,304.752 367.507,290.797 368.475,289.479C371.114,285.884 377.853,281.03 379.765,279.963C402.57,267.236 423.884,276.892 434.143,287.834C436.341,290.179 439.545,294.888 440.035,295.768C441.717,298.791 448.876,311.476 444.695,328.552C442.007,339.532 434.812,348.141 430.426,351.417C428.913,352.547 427.62,352.775 429.106,353.946C429.616,354.348 429.695,354.034 435.5,354.034C452.578,354.034 456.516,353.433 465.297,357.887C468.168,359.343 482.356,368.05 482.034,387.501C481.903,395.393 481.981,396.284 481.966,478.5C481.965,481.298 482.139,481.334 481.966,481.5C481.256,482.182 477.567,481.966 477.5,481.966C467.565,481.966 466.645,482.087 466.034,481.5C466.026,481.492 466.06,386.306 466.01,385.517C465.517,377.676 460.278,372.093 453.52,370.417C451.78,369.986 451.758,370.035 382.5,370.035C355.816,370.035 355.83,369.846 353.516,369.987C343.392,370.605 338.979,378.538 338.213,383.451C337.772,386.279 338.228,473.857 337.966,481.5ZM401.507,289.977C402.528,290.024 402.514,290.033 403.527,290.07C409.971,290.308 415.53,293.367 417.4,294.652C433.649,305.812 433.263,326.82 421.276,338.263C412.953,346.208 402.225,346.576 397.478,345.621C377.801,341.665 374.878,325.07 374.365,322.524C373.21,316.798 374.869,308.413 378.201,303.317C385.059,292.83 393.512,290.648 401.507,289.977Z" style="fill:rgb(242,173,148);"/>
            </g>
            <g transform="matrix(1,0,0,1,14,14)">
                <path d="M449.966,481.5C449.443,481.613 448.971,481.906 448.449,482.02C448.134,482.088 447.402,481.966 445.5,481.966C435.503,481.966 434.645,482.088 434.034,481.5C433.819,481.293 434.081,480.903 434.081,480.604C434.066,455.569 434.05,430.535 434.034,405.5C434.034,396.334 433.785,396.323 433.983,395.552C434.536,393.387 435.481,394.284 447.495,393.966C450.153,393.895 449.965,394.839 449.966,397.5C449.968,404.22 449.989,480.808 449.966,481.5Z" style="fill:rgb(242,173,148);"/>
            </g>
            <g transform="matrix(1,0,0,1,14,14)">
                <path d="M369.966,481.5C369.443,481.613 368.971,481.906 368.449,482.02C368.134,482.088 367.402,481.966 365.5,481.966C355.503,481.966 354.645,482.088 354.034,481.5C353.819,481.293 354.081,480.903 354.081,480.604C354.066,455.569 354.05,430.535 354.034,405.5C354.034,396.334 353.785,396.323 353.983,395.552C354.536,393.387 355.481,394.284 367.495,393.966C370.153,393.895 369.965,394.839 369.966,397.5C369.968,404.22 369.989,480.808 369.966,481.5Z" style="fill:rgb(242,173,148);"/>
            </g>
        </g>
        <g transform="matrix(1,0,0,1,14,14)">
            <path d="M107.231,218.11C107.802,217.067 108.538,215.72 116.295,206.336C121.876,199.583 123.888,195.714 127.499,194.496C129.292,193.891 129.336,193.965 165.5,193.965C187.521,193.965 187.657,194.121 189.723,192.924C191.699,191.78 191.78,191.698 192.925,189.724C194.216,187.497 194.031,187.341 194.034,166.5C194.035,163.301 193.299,161.88 196.505,161.966C201.015,162.085 201,162.034 205.5,162.034C208.699,162.035 210.12,161.299 210.034,164.505C209.742,175.522 210.131,175.505 209.945,186.519C209.926,187.621 209.818,194.025 205.693,199.634C205.059,200.496 201.262,205.66 195.331,208.095C189.857,210.341 189.119,210.035 162.5,210.035C134.526,210.035 134.401,209.954 133.567,210.594C132.582,211.35 105.583,245.384 105.022,246.106C99.532,253.158 91.152,249.218 90.212,243.563C89.707,240.528 90.069,219.384 89.965,212.488C89.939,210.794 90.081,210.401 88.448,209.983C88.255,209.934 28.616,209.999 25.482,209.946C14.25,209.757 1.687,200.882 1.966,184.499C2.141,174.216 1.963,31.258 2.053,25.483C2.261,12.134 13.311,3.036 23.46,2.144C24.902,2.018 24.905,2.035 127.5,2.034C187.097,2.034 187.098,2.017 188.541,2.143C196.757,2.865 204.483,8.823 207.531,15.485C210.351,21.646 209.966,22.758 209.966,42.5C209.966,49.218 210.183,49.282 209.966,49.5C209.823,49.643 209.381,50.085 207.495,50.034C196.141,49.733 194.881,50.346 194.034,49.5C193.895,49.361 194.005,28.387 193.952,26.481C193.743,18.947 187.607,17.877 184.498,17.967C181.918,18.042 181.919,18.035 77.5,18.035C25.061,18.035 25.019,17.976 23.496,18.489C16.964,20.686 17.966,27.925 17.966,32.5C17.966,185.16 17.964,185.16 17.978,185.488C18.012,186.328 18.267,192.502 24.438,193.775C25.479,193.99 25.487,193.965 84.5,193.965C99.613,193.965 102.073,193.322 104.929,198.275C105.657,199.538 106.452,200.916 105.831,216.468C105.765,218.135 106.477,217.73 107.231,218.11Z" style="fill:rgb(242,173,148);fill-opacity:1;"/>
        </g>
        <g transform="matrix(1,0,0,1,14,14)">
            <path d="M268.189,72.811C269.674,74.34 269.66,74.336 271.189,75.811C273.522,78.144 275.856,80.478 278.189,82.811C280.156,84.835 280.147,84.817 282.83,87.5C284.83,89.5 286.83,91.5 288.83,93.5C290.001,94.671 289.994,94.658 291.189,95.811C294.211,98.933 300.05,103.24 297.169,109.345C296.089,111.635 292.718,114.619 276.663,130.663C271.152,136.169 271.195,136.181 265.66,141.665C263.289,144.013 262.74,142.628 260.056,139.944C258.723,138.611 257.389,137.277 256.056,135.944C255.279,135.204 255.275,135.237 254.519,134.481C251.997,131.96 253.304,131.344 255.824,128.824C255.991,128.657 256.18,128.514 256.35,128.35C256.939,127.779 265.833,118.835 267.353,117.353C268.899,115.844 269.643,116.162 269.511,114.495C269.448,113.696 268.849,114.029 268.785,114.029C242.69,114.031 216.595,114.033 190.5,114.035C190.264,114.035 187.664,114.035 187.552,114.017C187.023,113.936 186.42,113.87 186.034,113.5C186.034,113.5 186.034,104.3 186.034,103.5C186.034,99.861 185.298,98.083 188.488,98.035C202.268,97.827 258.419,98.014 264.5,98.034C268.761,98.049 269.415,98.721 269.511,97.505C269.643,95.838 268.899,96.156 267.353,94.647C266.217,93.539 253.685,81.314 253.38,80.57C252.664,78.822 254.181,77.893 255.036,77.037C258.292,73.781 258.232,73.756 261.499,70.499C261.526,70.472 263.219,68.066 265.2,69.832C265.296,69.918 267.95,72.572 268.189,72.811Z" style="fill:rgb(191,83,44);fill-opacity:1;"/>
        </g>
        <g>
            <g transform="matrix(34.038726,0,0,34.038726,-3965.044091,-3964.920059)">
                <circle cx="120.012" cy="120.008" r="0.422" style="fill:rgb(1,38,38);"/>
            </g>
            <g transform="matrix(1.765998,0,0,1.765998,-571.826011,-91.920347)">
                <path d="M391.994,104.451C389.91,104.451 388.218,102.76 388.218,100.676C388.218,98.593 389.91,96.901 391.994,96.901C394.077,96.901 395.769,98.593 395.769,100.676C395.769,102.76 394.077,104.451 391.994,104.451ZM407.548,120.005C407.548,117.922 409.239,116.23 411.323,116.23C413.406,116.23 415.098,117.922 415.098,120.005C415.098,122.089 413.406,123.78 411.323,123.78C409.239,123.78 407.548,122.089 407.548,120.005ZM391.994,135.559C394.077,135.559 395.769,137.251 395.769,139.334C395.769,141.418 394.077,143.109 391.994,143.109C389.91,143.109 388.218,141.418 388.218,139.334C388.218,137.251 389.91,135.559 391.994,135.559ZM376.44,120.005C376.44,122.089 374.748,123.78 372.665,123.78C370.581,123.78 368.89,122.089 368.89,120.005C368.89,117.922 370.581,116.23 372.665,116.23C374.748,116.23 376.44,117.922 376.44,120.005Z" style="fill:rgb(1,38,38);"/>
            </g>
            <g transform="matrix(0.968934,0,0,0.968934,4.131949,3.712714)">
                <path d="M120.031,62.576C116.993,62.576 114.526,60.109 114.526,57.071C114.526,54.033 116.993,51.567 120.03,51.567C123.068,51.567 125.535,54.033 125.535,57.071C125.535,60.109 123.068,62.576 120.031,62.576ZM160.644,79.411C158.496,77.263 158.496,73.774 160.644,71.626C162.792,69.478 166.28,69.478 168.428,71.626C170.576,73.775 170.576,77.263 168.428,79.411C166.28,81.559 162.792,81.559 160.644,79.411ZM177.479,120.024C177.479,116.986 179.945,114.52 182.983,114.52C186.021,114.52 188.488,116.986 188.488,120.024C188.488,123.062 186.021,125.529 182.983,125.529C179.945,125.529 177.479,123.062 177.479,120.024ZM160.644,160.638C162.792,158.489 166.28,158.489 168.428,160.638C170.577,162.786 170.576,166.274 168.428,168.422C166.28,170.57 162.792,170.57 160.644,168.422C158.496,166.274 158.496,162.786 160.644,160.638ZM120.031,177.473C123.068,177.473 125.535,179.939 125.535,182.977C125.535,186.015 123.068,188.481 120.031,188.481C116.993,188.481 114.526,186.015 114.526,182.977C114.526,179.939 116.993,177.473 120.031,177.473ZM79.417,160.638C81.565,162.786 81.565,166.274 79.417,168.422C77.269,170.57 73.781,170.57 71.633,168.422C69.485,166.274 69.485,162.786 71.633,160.638C73.781,158.489 77.269,158.49 79.417,160.638ZM62.582,120.024C62.582,123.062 60.116,125.529 57.078,125.529C54.04,125.529 51.573,123.062 51.573,120.024C51.573,116.986 54.04,114.52 57.078,114.52C60.116,114.52 62.582,116.986 62.582,120.024ZM79.417,79.411C77.269,81.559 73.781,81.559 71.633,79.411C69.485,77.263 69.485,73.775 71.633,71.626C73.781,69.478 77.269,69.478 79.417,71.626C81.565,73.775 81.565,77.263 79.417,79.411Z" style="fill:rgb(1,38,38);"/>
            </g>
            <g>
                <path d="M163.549,76.861L120.434,120.008" style="fill:none;stroke:rgb(1,38,38);stroke-width:4px;"/>
                <path d="M120.434,85.873L77.222,162.584L59.437,120.008L86.299,120.008L120.434,154.143L120.434,181.005L154.569,120.008L120.012,59.011L77.021,76.861L120.012,120.008L163.549,163.388L181.431,120.008" style="fill:none;stroke:rgb(1,38,38);stroke-width:4px;"/>
            </g>
        </g>
        <g transform="matrix(1,0,0,1,271.761344,0)">
            <g transform="matrix(40.477519,0,0,40.477519,-4737.776603,-4737.628399)">
                <circle cx="120.012" cy="120.008" r="0.422" style="fill:rgb(1,38,38);"/>
            </g>
            <g transform="matrix(1.765998,0,0,1.765998,-571.826011,-91.920347)">
                <path d="M391.994,105.584C389.285,105.584 387.086,103.385 387.086,100.676C387.086,97.967 389.285,95.769 391.994,95.769C394.702,95.768 396.901,97.967 396.901,100.676C396.901,103.385 394.702,105.584 391.994,105.584ZM406.415,120.005C406.415,117.297 408.614,115.097 411.323,115.097C414.031,115.097 416.23,117.297 416.23,120.005C416.23,122.714 414.031,124.913 411.323,124.913C408.614,124.913 406.415,122.714 406.415,120.005ZM391.994,134.427C394.702,134.427 396.901,136.626 396.901,139.334C396.901,142.043 394.702,144.242 391.993,144.242C389.285,144.242 387.086,142.043 387.086,139.334C387.086,136.625 389.285,134.427 391.994,134.427ZM377.572,120.005C377.572,122.714 375.373,124.913 372.665,124.913C369.956,124.913 367.757,122.714 367.757,120.005C367.757,117.296 369.956,115.097 372.665,115.097C375.373,115.097 377.572,117.296 377.572,120.005Z" style="fill:rgb(1,38,38);"/>
            </g>
            <g transform="matrix(0.968934,0,0,0.968934,4.131949,3.712714)">
                <path d="M120.031,62.576C116.993,62.576 114.526,60.109 114.526,57.071C114.526,54.033 116.993,51.567 120.03,51.567C123.068,51.567 125.535,54.033 125.535,57.071C125.535,60.109 123.068,62.576 120.031,62.576ZM160.644,79.411C158.496,77.263 158.496,73.774 160.644,71.626C162.792,69.478 166.28,69.478 168.428,71.626C170.576,73.775 170.576,77.263 168.428,79.411C166.28,81.559 162.792,81.559 160.644,79.411ZM177.479,120.024C177.479,116.986 179.945,114.52 182.983,114.52C186.021,114.52 188.488,116.986 188.488,120.024C188.488,123.062 186.021,125.529 182.983,125.529C179.945,125.529 177.479,123.062 177.479,120.024ZM160.644,160.638C162.792,158.489 166.28,158.489 168.428,160.638C170.577,162.786 170.576,166.274 168.428,168.422C166.28,170.57 162.792,170.57 160.644,168.422C158.496,166.274 158.496,162.786 160.644,160.638ZM120.031,177.473C123.068,177.473 125.535,179.939 125.535,182.977C125.535,186.015 123.068,188.481 120.031,188.481C116.993,188.481 114.526,186.015 114.526,182.977C114.526,179.939 116.993,177.473 120.031,177.473ZM79.417,160.638C81.565,162.786 81.565,166.274 79.417,168.422C77.269,170.57 73.781,170.57 71.633,168.422C69.485,166.274 69.485,162.786 71.633,160.638C73.781,158.489 77.269,158.49 79.417,160.638ZM62.582,120.024C62.582,123.062 60.116,125.529 57.078,125.529C54.04,125.529 51.573,123.062 51.573,120.024C51.573,116.986 54.04,114.52 57.078,114.52C60.116,114.52 62.582,116.986 62.582,120.024ZM79.417,79.411C77.269,81.559 73.781,81.559 71.633,79.411C69.485,77.263 69.485,73.775 71.633,71.626C73.781,69.478 77.269,69.478 79.417,71.626C81.565,73.775 81.565,77.263 79.417,79.411Z" style="fill:rgb(1,38,38);"/>
            </g>
            <g transform="matrix(1,0,0,1,-271.761344,0)">
                <path d="M392.195,85.873L392.195,120.008L358.06,120.008" style="fill:none;stroke:rgb(1,38,38);stroke-width:4px;"/>
                <path d="M391.773,120.008L426.33,120.008" style="fill:none;stroke:rgb(1,38,38);stroke-width:4px;"/>
                <path d="M392.195,120.008L392.195,154.143" style="fill:none;stroke:rgb(1,38,38);stroke-width:4px;"/>
                <path d="M392.195,85.873L392.195,59.011" style="fill:none;stroke:rgb(1,38,38);stroke-width:4px;"/>
                <path d="M392.195,120.008L435.382,76.793" style="fill:none;stroke:rgb(1,38,38);stroke-width:4px;"/>
                <path d="M426.33,120.008L453.192,120.008" style="fill:none;stroke:rgb(1,38,38);stroke-width:4px;"/>
                <path d="M391.773,120.008L435.382,163.544" style="fill:none;stroke:rgb(1,38,38);stroke-width:4px;"/>
                <path d="M392.195,154.143L392.195,181.005" style="fill:none;stroke:rgb(1,38,38);stroke-width:4px;"/>
                <path d="M391.773,120.008L349.06,163.544" style="fill:none;stroke:rgb(1,38,38);stroke-width:4px;"/>
                <path d="M358.06,120.008L331.198,120.008" style="fill:none;stroke:rgb(1,38,38);stroke-width:4px;"/>
                <path d="M392.195,120.008L349.06,77.222" style="fill:none;stroke:rgb(1,38,38);stroke-width:4px;"/>
            </g>
        </g>
    </g>
    <path d="M300.544,82.413L300.79,82.253C297.84,68.719 301.963,52.737 313.314,41.392C324.665,30.047 340.656,25.926 354.196,28.877C361.683,17.222 375.905,8.833 391.958,8.833C408.01,8.833 422.232,17.222 429.719,28.877C443.259,25.926 459.25,30.047 470.601,41.392C481.952,52.737 486.075,68.72 483.124,82.254C494.786,89.738 503.178,103.954 503.178,119.999C503.178,136.044 494.786,150.26 483.124,157.744C486.075,171.278 481.952,187.261 470.601,198.606C459.25,209.951 443.259,214.072 429.719,211.121C422.232,222.776 408.01,231.165 391.958,231.165C375.905,231.165 361.683,222.776 354.196,211.121C340.656,214.072 324.665,209.951 313.314,198.606C302.001,187.299 297.863,171.382 300.759,157.881L318.714,150.593L316.068,156.939C316.006,157.089 315.945,157.24 315.885,157.392C312.092,167.098 314.812,179.744 323.494,188.421C332.316,197.238 345.239,199.91 355.002,195.844L361.675,193.065L364.428,199.748C368.454,209.523 379.483,216.765 391.958,216.765C404.432,216.765 415.461,209.523 419.487,199.748L422.24,193.065L428.913,195.844C438.676,199.91 451.599,197.238 460.421,188.421C469.24,179.607 471.914,166.694 467.847,156.939L465.063,150.263L471.752,147.51C481.531,143.486 488.778,132.465 488.778,119.999C488.778,107.533 481.531,96.512 471.752,92.488L465.063,89.735L467.847,83.059C471.914,73.304 469.24,60.391 460.421,51.577C451.599,42.76 438.676,40.088 428.913,44.154L422.24,46.933L419.487,40.25C415.461,30.475 404.432,23.233 391.958,23.233C379.483,23.233 368.454,30.475 364.428,40.25L361.675,46.933L355.002,44.154C345.239,40.088 332.316,42.76 323.494,51.577C314.675,60.391 312.001,73.304 316.068,83.059L318.629,89.2L318.556,89.23L300.544,82.413Z" style="fill:rgb(242,173,148);"/>
    <path d="M309.567,93.04L312.183,92.48L311.999,92.554L309.585,93.041L309.567,93.04Z" style="fill:rgb(242,173,148);"/>
    <g transform="matrix(0.706431,0,0,0.706431,149.795241,46.167853)">
        <circle cx="470.66" cy="252.203" r="19.476" style="fill:none;stroke:rgb(242,173,148);stroke-width:14.34px;"/>
    </g>
    <g transform="matrix(0.855006,0,0,0.855006,48.156711,26.675549)">
        <circle cx="484.882" cy="275.053" r="11.16" style="fill:none;stroke:rgb(242,173,148);stroke-width:9.36px;"/>
    </g>
</svg>
